<svg width="11" height="16" viewBox="0 0 11 16" fill="none" xmlns="http://www.w3.org/2000/svg">
<path d="M6.00586 1.54883C5.77148 0.699219 4.54102 0.640625 4.27734 1.54883C2.92969 6.14844 0 7.4082 0 10.6602C0 13.5605 2.28516 15.875 5.15625 15.875C7.99805 15.875 10.3125 13.5605 10.3125 10.6602C10.3125 7.4082 7.38281 6.17773 6.00586 1.54883ZM5.15625 14C3.33984 14 1.875 12.5352 1.875 10.7188C1.875 10.4844 2.08008 10.25 2.34375 10.25C2.57812 10.25 2.8125 10.4844 2.8125 10.7188C2.8125 12.0371 3.83789 13.0625 5.15625 13.0625C5.39062 13.0625 5.625 13.2969 5.625 13.5312C5.625 13.7949 5.39062 14 5.15625 14Z" fill="white"/>
</svg>
