<svg width="17" height="35" viewBox="0 0 17 35" fill="none" xmlns="http://www.w3.org/2000/svg">
<path d="M2.87181 0.617599C3.21334 0.616364 3.5508 0.696434 3.85938 0.851917C4.16796 1.0074 4.43982 1.23435 4.65499 1.51609L15.697 16.0861C16.0332 16.5206 16.217 17.0657 16.217 17.6281C16.217 18.1906 16.0332 18.7356 15.697 19.1701L4.26635 33.7402C3.8783 34.2361 3.32069 34.548 2.71618 34.6072C2.11167 34.6664 1.50977 34.4681 1.04291 34.0559C0.576043 33.6437 0.28245 33.0514 0.226714 32.4093C0.170979 31.7672 0.357668 31.1278 0.745711 30.6319L10.9647 17.616L1.08863 4.60008C0.809077 4.24363 0.631497 3.80959 0.576906 3.3493C0.522314 2.88901 0.592994 2.42174 0.780584 2.00278C0.968174 1.58383 1.26482 1.23072 1.63543 0.985237C2.00603 0.739758 2.43508 0.612179 2.87181 0.617599Z" fill="#B02E51"/>
</svg>
