<svg width="16" height="34" viewBox="0 0 16 34" fill="none" xmlns="http://www.w3.org/2000/svg">
<path d="M13.3452 33.9998C13.0037 34.0011 12.6662 33.921 12.3577 33.7655C12.0491 33.61 11.7772 33.3831 11.5621 33.1013L0.520066 18.5313C0.183819 18.0968 0 17.5518 0 16.9893C0 16.4268 0.183819 15.8818 0.520066 15.4473L11.9507 0.877244C12.3387 0.381336 12.8964 0.0694779 13.5009 0.0102755C14.1054 -0.0489268 14.7073 0.149376 15.1741 0.56156C15.641 0.973743 15.9346 1.56604 15.9903 2.20816C16.0461 2.85028 15.8594 3.48961 15.4713 3.98552L5.25235 17.0014L15.1284 30.0174C15.408 30.3738 15.5855 30.8078 15.6401 31.2681C15.6947 31.7284 15.624 32.1957 15.4365 32.6146C15.2489 33.0336 14.9522 33.3867 14.5816 33.6322C14.211 33.8777 13.782 34.0053 13.3452 33.9998Z" fill="#B02E51"/>
</svg>
