<svg width="19" height="30" viewBox="0 0 19 30" fill="none" xmlns="http://www.w3.org/2000/svg">
<path d="M18.3333 0.833423C18.3333 0.612409 18.2455 0.400447 18.0893 0.244167C17.933 0.0878866 17.721 8.90726e-05 17.5 8.90726e-05H13.3333C11.2352 -0.104426 9.181 0.625742 7.61954 2.03106C6.05808 3.43637 5.11631 5.40258 5 7.50009V12.0001H0.833333C0.61232 12.0001 0.400358 12.0879 0.244078 12.2442C0.0877975 12.4004 0 12.6124 0 12.8334V17.1668C0 17.3878 0.0877975 17.5997 0.244078 17.756C0.400358 17.9123 0.61232 18.0001 0.833333 18.0001H5V29.1668C5 29.3878 5.0878 29.5997 5.24408 29.756C5.40036 29.9123 5.61232 30.0001 5.83333 30.0001H10.8333C11.0543 30.0001 11.2663 29.9123 11.4226 29.756C11.5789 29.5997 11.6667 29.3878 11.6667 29.1668V18.0001H16.0333C16.2187 18.0028 16.3996 17.9436 16.5475 17.8319C16.6954 17.7202 16.8018 17.5624 16.85 17.3834L18.05 13.0501C18.0832 12.927 18.0876 12.7979 18.063 12.6727C18.0384 12.5476 17.9855 12.4298 17.9082 12.3284C17.8309 12.2269 17.7314 12.1446 17.6173 12.0877C17.5032 12.0308 17.3775 12.0008 17.25 12.0001H11.6667V7.50009C11.7081 7.08755 11.9019 6.70528 12.21 6.42791C12.5182 6.15055 12.9187 5.99801 13.3333 6.00009H17.5C17.721 6.00009 17.933 5.91229 18.0893 5.75601C18.2455 5.59973 18.3333 5.38777 18.3333 5.16676V0.833423Z" fill="#A93B59"/>
</svg>
