<svg width="34" height="34" viewBox="0 0 34 34" fill="none" xmlns="http://www.w3.org/2000/svg">
<path d="M25.9999 33.667C19.1954 33.6582 12.6721 30.9512 7.86059 26.1397C3.04906 21.3282 0.342072 14.8049 0.333252 8.00036C0.333252 5.96703 1.14099 4.01698 2.57877 2.5792C4.01655 1.14142 5.96659 0.333687 7.99992 0.333687C8.43049 0.330407 8.86033 0.369484 9.28325 0.450353C9.6921 0.510854 10.094 0.611336 10.4833 0.750353C10.757 0.846402 11.0009 1.01224 11.1909 1.23147C11.3809 1.45071 11.5104 1.71573 11.5666 2.00035L13.8499 12.0004C13.9115 12.2718 13.9041 12.5543 13.8284 12.8222C13.7527 13.09 13.6111 13.3346 13.4166 13.5337C13.1999 13.767 13.1833 13.7837 11.1333 14.8504C12.7749 18.4518 15.6553 21.344 19.2499 23.0004C20.3333 20.9337 20.3499 20.917 20.5833 20.7004C20.7823 20.5058 21.0269 20.3643 21.2948 20.2886C21.5626 20.2129 21.8451 20.2055 22.1166 20.267L32.1166 22.5504C32.3921 22.6143 32.6468 22.7473 32.8567 22.9368C33.0667 23.1263 33.2249 23.3661 33.3166 23.6337C33.4573 24.0293 33.5632 24.4364 33.6333 24.8504C33.7003 25.2692 33.7338 25.6928 33.7333 26.117C33.7025 28.1417 32.8721 30.0719 31.4232 31.4864C29.9743 32.901 28.0247 33.6849 25.9999 33.667Z" fill="#A93B59"/>
</svg>
