<svg width="33" height="25" viewBox="0 0 33 25" fill="none" xmlns="http://www.w3.org/2000/svg">
<path d="M11.7199 24.9998C11.4457 24.9989 11.1746 24.9417 10.9234 24.8316C10.6722 24.7215 10.4464 24.5609 10.2599 24.3598L0.539927 14.0198C0.176581 13.6326 -0.0180627 13.1169 -0.00118444 12.5862C0.0156938 12.0555 0.242712 11.5532 0.629928 11.1898C1.01714 10.8265 1.53284 10.6318 2.06357 10.6487C2.5943 10.6656 3.09658 10.8926 3.45993 11.2798L11.6999 20.0598L28.5199 1.65982C28.6906 1.44727 28.903 1.27185 29.1439 1.14435C29.3849 1.01685 29.6494 0.939948 29.9211 0.918379C30.1929 0.896811 30.4662 0.931026 30.7242 1.01892C30.9823 1.10682 31.2196 1.24654 31.4217 1.42951C31.6238 1.61248 31.7863 1.83483 31.8993 2.08291C32.0124 2.33098 32.0735 2.59954 32.0789 2.8721C32.0844 3.14465 32.0341 3.41544 31.9311 3.66784C31.8281 3.92024 31.6745 4.14892 31.4799 4.33982L13.1999 24.3398C13.0152 24.5445 12.7902 24.7088 12.5389 24.8224C12.2877 24.936 12.0156 24.9964 11.7399 24.9998H11.7199Z" fill="#822740"/>
</svg>
