<svg width="18" height="22" viewBox="0 0 18 22" fill="none" xmlns="http://www.w3.org/2000/svg">
<path d="M9.00004 9.53329C9.92302 9.53329 10.8253 9.25959 11.5927 8.74681C12.3601 8.23403 12.9583 7.5052 13.3115 6.65248C13.6647 5.79976 13.7571 4.86144 13.577 3.9562C13.397 3.05095 12.9525 2.21943 12.2999 1.56679C11.6472 0.914143 10.8157 0.469686 9.91046 0.289622C9.00522 0.109558 8.06691 0.201973 7.21418 0.555182C6.36146 0.908391 5.63263 1.50653 5.11985 2.27396C4.60707 3.04139 4.33337 3.94364 4.33337 4.86662C4.33337 6.1043 4.82504 7.29128 5.70021 8.16645C6.57538 9.04162 7.76236 9.53329 9.00004 9.53329Z" fill="#6F6567"/>
<path d="M16 21.1999C16.3095 21.1999 16.6062 21.077 16.825 20.8582C17.0438 20.6394 17.1667 20.3427 17.1667 20.0332C17.1667 17.8673 16.3063 15.7901 14.7747 14.2585C13.2432 12.727 11.166 11.8666 9.00004 11.8666C6.83411 11.8666 4.75688 12.727 3.22534 14.2585C1.69379 15.7901 0.833374 17.8673 0.833374 20.0332C0.833374 20.3427 0.956291 20.6394 1.17508 20.8582C1.39388 21.077 1.69062 21.1999 2.00004 21.1999H16Z" fill="#6F6567"/>
</svg>
