<svg width="24" height="24" viewBox="0 0 24 24" fill="none" xmlns="http://www.w3.org/2000/svg">
<path d="M18.4431 23.9995C13.5536 23.9932 8.86624 22.0442 5.40886 18.5799C1.95148 15.1157 0.00633762 10.419 0 5.51981C0 4.05584 0.580409 2.65183 1.61354 1.61664C2.64668 0.581454 4.04791 -0.000106989 5.50898 -0.000106989C5.81837 -0.00246832 6.12724 0.0256666 6.43114 0.0838917C6.72492 0.127452 7.01373 0.199797 7.29341 0.299889C7.49012 0.369043 7.6654 0.488446 7.80193 0.64629C7.93845 0.804135 8.0315 0.994953 8.07185 1.19988L9.71257 8.39977C9.7568 8.5952 9.75147 8.79862 9.69708 8.99146C9.64269 9.1843 9.54097 9.36042 9.4012 9.50375C9.24551 9.67175 9.23353 9.68375 7.76048 10.4517C8.94011 13.0447 11.0098 15.1271 13.5928 16.3197C14.3713 14.8317 14.3832 14.8197 14.5509 14.6637C14.6939 14.5236 14.8697 14.4217 15.0622 14.3672C15.2546 14.3127 15.4576 14.3074 15.6527 14.3517L22.8383 15.9957C23.0363 16.0417 23.2193 16.1374 23.3702 16.2739C23.521 16.4103 23.6347 16.583 23.7006 16.7756C23.8017 17.0605 23.8778 17.3536 23.9281 17.6516C23.9763 17.9532 24.0004 18.2582 24 18.5636C23.9779 20.0213 23.3812 21.4111 22.3401 22.4295C21.299 23.448 19.898 24.0124 18.4431 23.9995V23.9995Z" fill="#827679"/>
</svg>
